<svg width="25" height="24" viewBox="0 0 25 24" fill="none" xmlns="http://www.w3.org/2000/svg">
<path d="M9.0686 21.0001C7.40194 21.0001 5.98527 20.4167 4.8186 19.2501C3.65194 18.0834 3.0686 16.6667 3.0686 15.0001V9.00006C3.0686 7.33339 3.65194 5.91673 4.8186 4.75006C5.98527 3.58339 7.40194 3.00006 9.0686 3.00006H15.0686C16.7353 3.00006 18.1519 3.58339 19.3186 4.75006C20.4853 5.91673 21.0686 7.33339 21.0686 9.00006V15.0001C21.0686 16.6667 20.4853 18.0834 19.3186 19.2501C18.1519 20.4167 16.7353 21.0001 15.0686 21.0001H9.0686ZM11.0686 13.2001L9.5686 11.7001C9.38527 11.5167 9.15194 11.4251 8.8686 11.4251C8.58527 11.4251 8.35194 11.5167 8.1686 11.7001C7.98527 11.8834 7.8936 12.1167 7.8936 12.4001C7.8936 12.6834 7.98527 12.9167 8.1686 13.1001L10.3686 15.3001C10.5686 15.5001 10.8019 15.6001 11.0686 15.6001C11.3353 15.6001 11.5686 15.5001 11.7686 15.3001L16.3686 10.7001C16.5519 10.5167 16.6436 10.2834 16.6436 10.0001C16.6436 9.71673 16.5519 9.48339 16.3686 9.30006C16.1853 9.11673 15.9519 9.02506 15.6686 9.02506C15.3853 9.02506 15.1519 9.11673 14.9686 9.30006L11.0686 13.2001ZM9.0686 19.0001H15.0686C16.1686 19.0001 17.1103 18.6084 17.8936 17.8251C18.6769 17.0417 19.0686 16.1001 19.0686 15.0001V9.00006C19.0686 7.90006 18.6769 6.95839 17.8936 6.17506C17.1103 5.39173 16.1686 5.00006 15.0686 5.00006H9.0686C7.9686 5.00006 7.02694 5.39173 6.2436 6.17506C5.46027 6.95839 5.0686 7.90006 5.0686 9.00006V15.0001C5.0686 16.1001 5.46027 17.0417 6.2436 17.8251C7.02694 18.6084 7.9686 19.0001 9.0686 19.0001Z" fill="#FAF8F2"/>
</svg>
