<svg width="25" height="25" viewBox="0 0 25 25" fill="none" xmlns="http://www.w3.org/2000/svg">
<path d="M9.70667 21.5688C8.04 21.5688 6.62333 20.9855 5.45667 19.8188C4.29 18.6522 3.70667 17.2355 3.70667 15.5688V9.56885C3.70667 7.90218 4.29 6.48551 5.45667 5.31885C6.62333 4.15218 8.04 3.56885 9.70667 3.56885H15.7067C17.3733 3.56885 18.79 4.15218 19.9567 5.31885C21.1233 6.48551 21.7067 7.90218 21.7067 9.56885V15.5688C21.7067 17.2355 21.1233 18.6522 19.9567 19.8188C18.79 20.9855 17.3733 21.5688 15.7067 21.5688H9.70667ZM11.7067 13.7688L10.2067 12.2688C10.0233 12.0855 9.79 11.9938 9.50667 11.9938C9.22333 11.9938 8.99 12.0855 8.80666 12.2688C8.62333 12.4522 8.53167 12.6855 8.53167 12.9688C8.53167 13.2522 8.62333 13.4855 8.80666 13.6688L11.0067 15.8688C11.2067 16.0688 11.44 16.1688 11.7067 16.1688C11.9733 16.1688 12.2067 16.0688 12.4067 15.8688L17.0067 11.2688C17.19 11.0855 17.2817 10.8522 17.2817 10.5688C17.2817 10.2855 17.19 10.0522 17.0067 9.86885C16.8233 9.68551 16.59 9.59385 16.3067 9.59385C16.0233 9.59385 15.79 9.68551 15.6067 9.86885L11.7067 13.7688ZM9.70667 19.5688H15.7067C16.8067 19.5688 17.7483 19.1772 18.5317 18.3938C19.315 17.6105 19.7067 16.6688 19.7067 15.5688V9.56885C19.7067 8.46885 19.315 7.52718 18.5317 6.74385C17.7483 5.96051 16.8067 5.56885 15.7067 5.56885H9.70667C8.60667 5.56885 7.665 5.96051 6.88166 6.74385C6.09833 7.52718 5.70667 8.46885 5.70667 9.56885V15.5688C5.70667 16.6688 6.09833 17.6105 6.88166 18.3938C7.665 19.1772 8.60667 19.5688 9.70667 19.5688Z" fill="#FFB43E"/>
</svg>
