<svg width="24" height="25" viewBox="0 0 24 25" fill="none" xmlns="http://www.w3.org/2000/svg">
<path d="M9 21.5688C7.33333 21.5688 5.91667 20.9855 4.75 19.8188C3.58333 18.6522 3 17.2355 3 15.5688V9.56885C3 7.90218 3.58333 6.48551 4.75 5.31885C5.91667 4.15218 7.33333 3.56885 9 3.56885H15C16.6667 3.56885 18.0833 4.15218 19.25 5.31885C20.4167 6.48551 21 7.90218 21 9.56885V15.5688C21 17.2355 20.4167 18.6522 19.25 19.8188C18.0833 20.9855 16.6667 21.5688 15 21.5688H9ZM9 19.5688H15C16.1 19.5688 17.0417 19.1772 17.825 18.3938C18.6083 17.6105 19 16.6688 19 15.5688V9.56885C19 8.46885 18.6083 7.52718 17.825 6.74385C17.0417 5.96051 16.1 5.56885 15 5.56885H9C7.9 5.56885 6.95833 5.96051 6.175 6.74385C5.39167 7.52718 5 8.46885 5 9.56885V15.5688C5 16.6688 5.39167 17.6105 6.175 18.3938C6.95833 19.1772 7.9 19.5688 9 19.5688Z" fill="#FFB43E"/>
</svg>
