<svg width="20" height="21" viewBox="0 0 20 21" fill="none" xmlns="http://www.w3.org/2000/svg">
<path d="M13.7908 4.03562C10.9177 6.90875 7.83174 9.64446 5.15315 12.7065C4.74404 13.1742 5.38194 13.5161 5.8419 13.9761C6.14869 14.2829 6.89178 15.2777 7.31158 15.3941C7.85241 15.5442 8.90454 14.0003 9.17945 13.7254C10.1087 12.7961 16.9304 6.77822 16.5292 6.3093C16.0975 5.80485 14.3055 4.55152 14.2315 3.96003C14.1523 3.32629 15.2635 3.22108 15.6993 3.62079C16.5779 4.42664 17.6152 5.27863 17.2096 6.29273" stroke="#323232" stroke-width="1.5" stroke-linecap="round"/>
<path d="M4.60547 13.562C4.34701 14.2146 4.14994 14.8799 3.89855 15.5331C3.78787 15.8207 3.37847 16.409 3.42161 16.718C3.4675 17.0467 6.37915 15.886 6.74445 15.701" stroke="#323232" stroke-width="1.5" stroke-linecap="round"/>
</svg>
