<svg width="24" height="25" viewBox="0 0 24 25" fill="none" xmlns="http://www.w3.org/2000/svg">
<path d="M12 17.3315C12.2833 17.3315 12.5208 17.2357 12.7125 17.044C12.9042 16.8524 13 16.6149 13 16.3315V12.3315C13 12.0482 12.9042 11.8107 12.7125 11.619C12.5208 11.4274 12.2833 11.3315 12 11.3315C11.7167 11.3315 11.4792 11.4274 11.2875 11.619C11.0958 11.8107 11 12.0482 11 12.3315V16.3315C11 16.6149 11.0958 16.8524 11.2875 17.044C11.4792 17.2357 11.7167 17.3315 12 17.3315ZM12 9.33154C12.2833 9.33154 12.5208 9.23571 12.7125 9.04404C12.9042 8.85238 13 8.61488 13 8.33154C13 8.04821 12.9042 7.81071 12.7125 7.61904C12.5208 7.42738 12.2833 7.33154 12 7.33154C11.7167 7.33154 11.4792 7.42738 11.2875 7.61904C11.0958 7.81071 11 8.04821 11 8.33154C11 8.61488 11.0958 8.85238 11.2875 9.04404C11.4792 9.23571 11.7167 9.33154 12 9.33154ZM12 22.3315C10.6167 22.3315 9.31667 22.069 8.1 21.544C6.88333 21.019 5.825 20.3065 4.925 19.4065C4.025 18.5065 3.3125 17.4482 2.7875 16.2315C2.2625 15.0149 2 13.7149 2 12.3315C2 10.9482 2.2625 9.64821 2.7875 8.43154C3.3125 7.21488 4.025 6.15654 4.925 5.25654C5.825 4.35654 6.88333 3.64404 8.1 3.11904C9.31667 2.59404 10.6167 2.33154 12 2.33154C13.3833 2.33154 14.6833 2.59404 15.9 3.11904C17.1167 3.64404 18.175 4.35654 19.075 5.25654C19.975 6.15654 20.6875 7.21488 21.2125 8.43154C21.7375 9.64821 22 10.9482 22 12.3315C22 13.7149 21.7375 15.0149 21.2125 16.2315C20.6875 17.4482 19.975 18.5065 19.075 19.4065C18.175 20.3065 17.1167 21.019 15.9 21.544C14.6833 22.069 13.3833 22.3315 12 22.3315ZM12 20.3315C14.2333 20.3315 16.125 19.5565 17.675 18.0065C19.225 16.4565 20 14.5649 20 12.3315C20 10.0982 19.225 8.20654 17.675 6.65654C16.125 5.10654 14.2333 4.33154 12 4.33154C9.76667 4.33154 7.875 5.10654 6.325 6.65654C4.775 8.20654 4 10.0982 4 12.3315C4 14.5649 4.775 16.4565 6.325 18.0065C7.875 19.5565 9.76667 20.3315 12 20.3315Z" fill="#ABAAAA"/>
</svg>
