<svg width="25" height="25" viewBox="0 0 25 25" fill="none" xmlns="http://www.w3.org/2000/svg">
<path d="M9.0686 21.1501C7.40194 21.1501 5.98527 20.5668 4.8186 19.4001C3.65194 18.2334 3.0686 16.8168 3.0686 15.1501V9.15009C3.0686 7.48342 3.65194 6.06675 4.8186 4.90009C5.98527 3.73342 7.40194 3.15009 9.0686 3.15009H15.0686C16.7353 3.15009 18.1519 3.73342 19.3186 4.90009C20.4853 6.06675 21.0686 7.48342 21.0686 9.15009V15.1501C21.0686 16.8168 20.4853 18.2334 19.3186 19.4001C18.1519 20.5668 16.7353 21.1501 15.0686 21.1501H9.0686ZM9.0686 19.1501H15.0686C16.1686 19.1501 17.1103 18.7584 17.8936 17.9751C18.6769 17.1918 19.0686 16.2501 19.0686 15.1501V9.15009C19.0686 8.05009 18.6769 7.10842 17.8936 6.32509C17.1103 5.54175 16.1686 5.15009 15.0686 5.15009H9.0686C7.9686 5.15009 7.02694 5.54175 6.2436 6.32509C5.46027 7.10842 5.0686 8.05009 5.0686 9.15009V15.1501C5.0686 16.2501 5.46027 17.1918 6.2436 17.9751C7.02694 18.7584 7.9686 19.1501 9.0686 19.1501Z" fill="#FAF8F2"/>
</svg>
