<svg width="21" height="21" viewBox="0 0 21 21" fill="none" xmlns="http://www.w3.org/2000/svg">
<path d="M3.42423 5.17972C3.38872 5.69443 3.35111 6.20874 3.33618 6.72478C3.32978 6.94584 3.27519 7.31993 3.42682 7.50859C3.7528 7.91416 4.50103 7.879 4.94704 7.92022C6.95885 8.10618 8.99085 8.02172 11.0072 8.02172C12.1035 8.02172 13.2001 8.03121 14.2963 8.0189C14.975 8.01129 15.6489 7.93441 16.3267 7.92022C16.6884 7.91265 16.8667 7.87693 16.9612 7.4522C17.1161 6.75583 17.1295 6.00355 17.1295 5.28968C17.1295 5.14238 17.2053 4.71996 17.0881 4.59892C16.7576 4.25753 16.1977 4.27598 15.7802 4.26904C13.4347 4.23006 11.075 4.26284 8.73077 4.34517C7.46439 4.38964 6.20629 4.41847 4.93927 4.41847C4.2299 4.41847 3.73833 4.73116 3.14453 5.12897" stroke="#323232" stroke-width="1.5" stroke-linecap="round"/>
<path d="M8.16857 4.16481C7.85314 3.94216 8.4635 3.20916 8.70991 3.09906C9.24047 2.862 9.93085 2.94681 10.4918 2.94681C10.9631 2.94681 11.748 2.73491 12.0143 3.21184C12.182 3.51222 12.3301 3.86657 12.3301 4.21556" stroke="#323232" stroke-width="1.5" stroke-linecap="round"/>
<path d="M4.66699 8.27539C4.70499 9.14926 4.87157 9.99136 5.02224 10.8524C5.25545 12.185 5.17693 13.5537 5.27317 14.9011C5.32769 15.6643 5.47354 16.7461 5.98085 17.3596C6.41191 17.8809 7.00481 18.0223 7.6556 18.0701C8.65836 18.1439 9.66768 18.1209 10.6724 18.1209C11.2607 18.1209 11.8491 18.1209 12.4374 18.1209C13.0576 18.1209 13.678 18.1254 14.2982 18.1181C14.5729 18.1148 15.0498 18.1752 15.3076 18.0166C15.5725 17.8535 15.5559 17.0315 15.5726 16.7647C15.6106 16.1562 15.5782 15.5356 15.5782 14.9265C15.5782 13.154 15.6565 11.3599 15.567 9.58925C15.5446 9.14627 15.4767 8.71961 15.4767 8.27539" stroke="#323232" stroke-width="1.5" stroke-linecap="round"/>
<path d="M8.32126 10.1025C8.28741 11.8965 8.27051 13.6876 8.27051 15.482" stroke="#323232" stroke-width="1.5" stroke-linecap="round"/>
<path d="M12.3808 10.1025C12.347 11.8965 12.3301 13.6876 12.3301 15.482" stroke="#323232" stroke-width="1.5" stroke-linecap="round"/>
</svg>
